<mxfile host="app.diagrams.net" agent="Mozilla/5.0 (Windows NT 10.0; Win64; x64) AppleWebKit/537.36 (KHTML, like Gecko) Chrome/139.0.0.0 Safari/537.36 Edg/139.0.0.0" version="28.1.2">
  <diagram name="第 1 页" id="IXnOI_-hGQ4wWREw-WJH">
    <mxGraphModel dx="563" dy="347" grid="1" gridSize="10" guides="1" tooltips="1" connect="0" arrows="1" fold="1" page="1" pageScale="1" pageWidth="827" pageHeight="1169" math="0" shadow="0">
      <root>
        <mxCell id="0" />
        <mxCell id="1" parent="0" />
        <mxCell id="wnhe7Y1w68x0GnMaK_CA-1" value="FestivalGoer" style="shape=table;startSize=20;container=1;collapsible=0;childLayout=tableLayout;fontSize=12;labelBackgroundColor=none;" parent="1" vertex="1">
          <mxGeometry x="440" y="540" width="380" height="40" as="geometry" />
        </mxCell>
        <mxCell id="wnhe7Y1w68x0GnMaK_CA-2" value="" style="shape=tableRow;horizontal=0;startSize=0;swimlaneHead=0;swimlaneBody=0;top=0;left=0;bottom=0;right=0;collapsible=0;dropTarget=0;fillColor=none;points=[[0,0.5],[1,0.5]];portConstraint=eastwest;labelBackgroundColor=none;" parent="wnhe7Y1w68x0GnMaK_CA-1" vertex="1">
          <mxGeometry y="20" width="380" height="20" as="geometry" />
        </mxCell>
        <mxCell id="wnhe7Y1w68x0GnMaK_CA-3" value="&lt;div&gt;&lt;span style=&quot;color: light-dark(rgb(0, 0, 0), rgb(237, 237, 237)); text-wrap-mode: nowrap;&quot;&gt;&lt;u style=&quot;&quot;&gt;FestivalGoerID&lt;/u&gt;&lt;/span&gt;&lt;/div&gt;" style="shape=partialRectangle;html=1;whiteSpace=wrap;connectable=0;overflow=hidden;fillColor=none;top=0;left=0;bottom=0;right=0;pointerEvents=1;labelBackgroundColor=none;" parent="wnhe7Y1w68x0GnMaK_CA-2" vertex="1">
          <mxGeometry width="86" height="20" as="geometry">
            <mxRectangle width="86" height="20" as="alternateBounds" />
          </mxGeometry>
        </mxCell>
        <mxCell id="wnhe7Y1w68x0GnMaK_CA-4" value="FGFirstName" style="shape=partialRectangle;html=1;whiteSpace=wrap;connectable=0;overflow=hidden;fillColor=none;top=0;left=0;bottom=0;right=0;pointerEvents=1;labelBackgroundColor=none;" parent="wnhe7Y1w68x0GnMaK_CA-2" vertex="1">
          <mxGeometry x="86" width="77" height="20" as="geometry">
            <mxRectangle width="77" height="20" as="alternateBounds" />
          </mxGeometry>
        </mxCell>
        <mxCell id="wnhe7Y1w68x0GnMaK_CA-5" value="FGLastName" style="shape=partialRectangle;html=1;whiteSpace=wrap;connectable=0;overflow=hidden;fillColor=none;top=0;left=0;bottom=0;right=0;pointerEvents=1;labelBackgroundColor=none;" parent="wnhe7Y1w68x0GnMaK_CA-2" vertex="1">
          <mxGeometry x="163" width="76" height="20" as="geometry">
            <mxRectangle width="76" height="20" as="alternateBounds" />
          </mxGeometry>
        </mxCell>
        <mxCell id="wnhe7Y1w68x0GnMaK_CA-6" value="FGMailAddress" style="shape=partialRectangle;html=1;whiteSpace=wrap;connectable=0;overflow=hidden;fillColor=none;top=0;left=0;bottom=0;right=0;pointerEvents=1;labelBackgroundColor=none;" parent="wnhe7Y1w68x0GnMaK_CA-2" vertex="1">
          <mxGeometry x="239" width="87" height="20" as="geometry">
            <mxRectangle width="87" height="20" as="alternateBounds" />
          </mxGeometry>
        </mxCell>
        <mxCell id="wnhe7Y1w68x0GnMaK_CA-7" value="FGPhone" style="shape=partialRectangle;html=1;whiteSpace=wrap;connectable=0;overflow=hidden;fillColor=none;top=0;left=0;bottom=0;right=0;pointerEvents=1;labelBackgroundColor=none;" parent="wnhe7Y1w68x0GnMaK_CA-2" vertex="1">
          <mxGeometry x="326" width="54" height="20" as="geometry">
            <mxRectangle width="54" height="20" as="alternateBounds" />
          </mxGeometry>
        </mxCell>
        <mxCell id="wnhe7Y1w68x0GnMaK_CA-8" value="TicketHolder" style="shape=table;startSize=20;container=1;collapsible=0;childLayout=tableLayout;labelBackgroundColor=none;" parent="1" vertex="1">
          <mxGeometry x="100" y="544.5" width="140" height="40" as="geometry" />
        </mxCell>
        <mxCell id="wnhe7Y1w68x0GnMaK_CA-9" value="" style="shape=tableRow;horizontal=0;startSize=0;swimlaneHead=0;swimlaneBody=0;top=0;left=0;bottom=0;right=0;collapsible=0;dropTarget=0;fillColor=none;points=[[0,0.5],[1,0.5]];portConstraint=eastwest;labelBackgroundColor=none;" parent="wnhe7Y1w68x0GnMaK_CA-8" vertex="1">
          <mxGeometry y="20" width="140" height="20" as="geometry" />
        </mxCell>
        <mxCell id="wnhe7Y1w68x0GnMaK_CA-10" value="&lt;u style=&quot;text-wrap-mode: nowrap;&quot;&gt;FestivalGoerID&lt;/u&gt;" style="shape=partialRectangle;html=1;whiteSpace=wrap;connectable=0;overflow=hidden;fillColor=none;top=0;left=0;bottom=0;right=0;pointerEvents=1;labelBackgroundColor=none;" parent="wnhe7Y1w68x0GnMaK_CA-9" vertex="1">
          <mxGeometry width="90" height="20" as="geometry">
            <mxRectangle width="90" height="20" as="alternateBounds" />
          </mxGeometry>
        </mxCell>
        <mxCell id="wnhe7Y1w68x0GnMaK_CA-11" value="Balance" style="shape=partialRectangle;html=1;whiteSpace=wrap;connectable=0;overflow=hidden;fillColor=none;top=0;left=0;bottom=0;right=0;pointerEvents=1;labelBackgroundColor=none;" parent="wnhe7Y1w68x0GnMaK_CA-9" vertex="1">
          <mxGeometry x="90" width="50" height="20" as="geometry">
            <mxRectangle width="50" height="20" as="alternateBounds" />
          </mxGeometry>
        </mxCell>
        <mxCell id="wnhe7Y1w68x0GnMaK_CA-12" value="SponsorRep" style="shape=table;startSize=20;container=1;collapsible=0;childLayout=tableLayout;labelBackgroundColor=none;" parent="1" vertex="1">
          <mxGeometry x="530" y="390" width="290" height="40" as="geometry" />
        </mxCell>
        <mxCell id="wnhe7Y1w68x0GnMaK_CA-13" value="" style="shape=tableRow;horizontal=0;startSize=0;swimlaneHead=0;swimlaneBody=0;top=0;left=0;bottom=0;right=0;collapsible=0;dropTarget=0;fillColor=none;points=[[0,0.5],[1,0.5]];portConstraint=eastwest;labelBackgroundColor=none;" parent="wnhe7Y1w68x0GnMaK_CA-12" vertex="1">
          <mxGeometry y="20" width="290" height="20" as="geometry" />
        </mxCell>
        <mxCell id="wnhe7Y1w68x0GnMaK_CA-14" value="&lt;u style=&quot;text-wrap-mode: nowrap;&quot;&gt;FestivalGoerID&lt;/u&gt;" style="shape=partialRectangle;html=1;whiteSpace=wrap;connectable=0;overflow=hidden;fillColor=none;top=0;left=0;bottom=0;right=0;pointerEvents=1;labelBackgroundColor=none;" parent="wnhe7Y1w68x0GnMaK_CA-13" vertex="1">
          <mxGeometry width="83" height="20" as="geometry">
            <mxRectangle width="83" height="20" as="alternateBounds" />
          </mxGeometry>
        </mxCell>
        <mxCell id="wnhe7Y1w68x0GnMaK_CA-15" value="TFN" style="shape=partialRectangle;html=1;whiteSpace=wrap;connectable=0;overflow=hidden;fillColor=none;top=0;left=0;bottom=0;right=0;pointerEvents=1;labelBackgroundColor=none;" parent="wnhe7Y1w68x0GnMaK_CA-13" vertex="1">
          <mxGeometry x="83" width="27" height="20" as="geometry">
            <mxRectangle width="27" height="20" as="alternateBounds" />
          </mxGeometry>
        </mxCell>
        <mxCell id="wnhe7Y1w68x0GnMaK_CA-16" value="BankAccount" style="shape=partialRectangle;html=1;whiteSpace=wrap;connectable=0;overflow=hidden;fillColor=none;top=0;left=0;bottom=0;right=0;pointerEvents=1;labelBackgroundColor=none;" parent="wnhe7Y1w68x0GnMaK_CA-13" vertex="1">
          <mxGeometry x="110" width="80" height="20" as="geometry">
            <mxRectangle width="80" height="20" as="alternateBounds" />
          </mxGeometry>
        </mxCell>
        <mxCell id="wnhe7Y1w68x0GnMaK_CA-17" value="&lt;span style=&quot;text-wrap-mode: nowrap;&quot;&gt;SponsorshipRate&lt;/span&gt;" style="shape=partialRectangle;html=1;whiteSpace=wrap;connectable=0;overflow=hidden;fillColor=none;top=0;left=0;bottom=0;right=0;pointerEvents=1;labelBackgroundColor=none;" parent="wnhe7Y1w68x0GnMaK_CA-13" vertex="1">
          <mxGeometry x="190" width="100" height="20" as="geometry">
            <mxRectangle width="100" height="20" as="alternateBounds" />
          </mxGeometry>
        </mxCell>
        <mxCell id="wnhe7Y1w68x0GnMaK_CA-18" value="Venue" style="shape=table;startSize=20;container=1;collapsible=0;childLayout=tableLayout;labelBackgroundColor=none;" parent="1" vertex="1">
          <mxGeometry x="175" y="240" width="200" height="40" as="geometry" />
        </mxCell>
        <mxCell id="wnhe7Y1w68x0GnMaK_CA-19" value="" style="shape=tableRow;horizontal=0;startSize=0;swimlaneHead=0;swimlaneBody=0;top=0;left=0;bottom=0;right=0;collapsible=0;dropTarget=0;fillColor=none;points=[[0,0.5],[1,0.5]];portConstraint=eastwest;labelBackgroundColor=none;" parent="wnhe7Y1w68x0GnMaK_CA-18" vertex="1">
          <mxGeometry y="20" width="200" height="20" as="geometry" />
        </mxCell>
        <mxCell id="wnhe7Y1w68x0GnMaK_CA-20" value="&lt;u&gt;VenueID&lt;/u&gt;" style="shape=partialRectangle;html=1;whiteSpace=wrap;connectable=0;overflow=hidden;fillColor=none;top=0;left=0;bottom=0;right=0;pointerEvents=1;labelBackgroundColor=none;" parent="wnhe7Y1w68x0GnMaK_CA-19" vertex="1">
          <mxGeometry width="50" height="20" as="geometry">
            <mxRectangle width="50" height="20" as="alternateBounds" />
          </mxGeometry>
        </mxCell>
        <mxCell id="wnhe7Y1w68x0GnMaK_CA-21" value="Address" style="shape=partialRectangle;html=1;whiteSpace=wrap;connectable=0;overflow=hidden;fillColor=none;top=0;left=0;bottom=0;right=0;pointerEvents=1;labelBackgroundColor=none;" parent="wnhe7Y1w68x0GnMaK_CA-19" vertex="1">
          <mxGeometry x="50" width="50" height="20" as="geometry">
            <mxRectangle width="50" height="20" as="alternateBounds" />
          </mxGeometry>
        </mxCell>
        <mxCell id="wnhe7Y1w68x0GnMaK_CA-22" value="NumberOfStages" style="shape=partialRectangle;html=1;whiteSpace=wrap;connectable=0;overflow=hidden;fillColor=none;top=0;left=0;bottom=0;right=0;pointerEvents=1;labelBackgroundColor=none;" parent="wnhe7Y1w68x0GnMaK_CA-19" vertex="1">
          <mxGeometry x="100" width="100" height="20" as="geometry">
            <mxRectangle width="100" height="20" as="alternateBounds" />
          </mxGeometry>
        </mxCell>
        <mxCell id="wnhe7Y1w68x0GnMaK_CA-27" value="Facilities" style="shape=table;startSize=20;container=1;collapsible=0;childLayout=tableLayout;labelBackgroundColor=none;" parent="1" vertex="1">
          <mxGeometry x="100" y="310" width="100" height="40" as="geometry" />
        </mxCell>
        <mxCell id="wnhe7Y1w68x0GnMaK_CA-28" value="" style="shape=tableRow;horizontal=0;startSize=0;swimlaneHead=0;swimlaneBody=0;top=0;left=0;bottom=0;right=0;collapsible=0;dropTarget=0;fillColor=none;points=[[0,0.5],[1,0.5]];portConstraint=eastwest;labelBackgroundColor=none;" parent="wnhe7Y1w68x0GnMaK_CA-27" vertex="1">
          <mxGeometry y="20" width="100" height="20" as="geometry" />
        </mxCell>
        <mxCell id="wnhe7Y1w68x0GnMaK_CA-29" value="&lt;u&gt;VenueID&lt;/u&gt;" style="shape=partialRectangle;html=1;whiteSpace=wrap;connectable=0;overflow=hidden;fillColor=none;top=0;left=0;bottom=0;right=0;pointerEvents=1;labelBackgroundColor=none;" parent="wnhe7Y1w68x0GnMaK_CA-28" vertex="1">
          <mxGeometry width="50" height="20" as="geometry">
            <mxRectangle width="50" height="20" as="alternateBounds" />
          </mxGeometry>
        </mxCell>
        <mxCell id="wnhe7Y1w68x0GnMaK_CA-30" value="&lt;u&gt;Facility&lt;/u&gt;" style="shape=partialRectangle;html=1;whiteSpace=wrap;connectable=0;overflow=hidden;fillColor=none;top=0;left=0;bottom=0;right=0;pointerEvents=1;labelBackgroundColor=none;" parent="wnhe7Y1w68x0GnMaK_CA-28" vertex="1">
          <mxGeometry x="50" width="50" height="20" as="geometry">
            <mxRectangle width="50" height="20" as="alternateBounds" />
          </mxGeometry>
        </mxCell>
        <mxCell id="wnhe7Y1w68x0GnMaK_CA-31" value="Stage" style="shape=table;startSize=20;container=1;collapsible=0;childLayout=tableLayout;labelBackgroundColor=none;" parent="1" vertex="1">
          <mxGeometry x="210" y="310" width="610" height="40" as="geometry" />
        </mxCell>
        <mxCell id="wnhe7Y1w68x0GnMaK_CA-32" value="" style="shape=tableRow;horizontal=0;startSize=0;swimlaneHead=0;swimlaneBody=0;top=0;left=0;bottom=0;right=0;collapsible=0;dropTarget=0;fillColor=none;points=[[0,0.5],[1,0.5]];portConstraint=eastwest;labelBackgroundColor=none;" parent="wnhe7Y1w68x0GnMaK_CA-31" vertex="1">
          <mxGeometry y="20" width="610" height="20" as="geometry" />
        </mxCell>
        <mxCell id="wnhe7Y1w68x0GnMaK_CA-33" value="&lt;u&gt;VenueID&lt;/u&gt;" style="shape=partialRectangle;html=1;whiteSpace=wrap;connectable=0;overflow=hidden;fillColor=none;top=0;left=0;bottom=0;right=0;pointerEvents=1;labelBackgroundColor=none;" parent="wnhe7Y1w68x0GnMaK_CA-32" vertex="1">
          <mxGeometry width="50" height="20" as="geometry">
            <mxRectangle width="50" height="20" as="alternateBounds" />
          </mxGeometry>
        </mxCell>
        <mxCell id="wnhe7Y1w68x0GnMaK_CA-34" value="&lt;u&gt;StageID&lt;/u&gt;" style="shape=partialRectangle;html=1;whiteSpace=wrap;connectable=0;overflow=hidden;fillColor=none;top=0;left=0;bottom=0;right=0;pointerEvents=1;labelBackgroundColor=none;" parent="wnhe7Y1w68x0GnMaK_CA-32" vertex="1">
          <mxGeometry x="50" width="50" height="20" as="geometry">
            <mxRectangle width="50" height="20" as="alternateBounds" />
          </mxGeometry>
        </mxCell>
        <mxCell id="wnhe7Y1w68x0GnMaK_CA-35" value="Capacity" style="shape=partialRectangle;html=1;whiteSpace=wrap;connectable=0;overflow=hidden;fillColor=none;top=0;left=0;bottom=0;right=0;pointerEvents=1;labelBackgroundColor=none;" parent="wnhe7Y1w68x0GnMaK_CA-32" vertex="1">
          <mxGeometry x="100" width="50" height="20" as="geometry">
            <mxRectangle width="50" height="20" as="alternateBounds" />
          </mxGeometry>
        </mxCell>
        <mxCell id="wnhe7Y1w68x0GnMaK_CA-36" value="Area" style="shape=partialRectangle;html=1;whiteSpace=wrap;connectable=0;overflow=hidden;fillColor=none;top=0;left=0;bottom=0;right=0;pointerEvents=1;labelBackgroundColor=none;" parent="wnhe7Y1w68x0GnMaK_CA-32" vertex="1">
          <mxGeometry x="150" width="30" height="20" as="geometry">
            <mxRectangle width="30" height="20" as="alternateBounds" />
          </mxGeometry>
        </mxCell>
        <mxCell id="wnhe7Y1w68x0GnMaK_CA-37" value="Zone" style="shape=partialRectangle;html=1;whiteSpace=wrap;connectable=0;overflow=hidden;fillColor=none;top=0;left=0;bottom=0;right=0;pointerEvents=1;labelBackgroundColor=none;" parent="wnhe7Y1w68x0GnMaK_CA-32" vertex="1">
          <mxGeometry x="180" width="30" height="20" as="geometry">
            <mxRectangle width="30" height="20" as="alternateBounds" />
          </mxGeometry>
        </mxCell>
        <mxCell id="wnhe7Y1w68x0GnMaK_CA-50" value="&lt;span style=&quot;text-wrap-mode: nowrap;&quot;&gt;FestivalStaffID&lt;/span&gt;" style="shape=partialRectangle;html=1;whiteSpace=wrap;connectable=0;overflow=hidden;fillColor=none;top=0;left=0;bottom=0;right=0;pointerEvents=1;labelBackgroundColor=none;" parent="wnhe7Y1w68x0GnMaK_CA-32" vertex="1">
          <mxGeometry x="210" width="90" height="20" as="geometry">
            <mxRectangle width="90" height="20" as="alternateBounds" />
          </mxGeometry>
        </mxCell>
        <mxCell id="wnhe7Y1w68x0GnMaK_CA-63" value="&lt;span style=&quot;text-wrap-mode: nowrap;&quot;&gt;FestivalGoerID&lt;/span&gt;" style="shape=partialRectangle;html=1;whiteSpace=wrap;connectable=0;overflow=hidden;fillColor=none;top=0;left=0;bottom=0;right=0;pointerEvents=1;labelBackgroundColor=none;" parent="wnhe7Y1w68x0GnMaK_CA-32" vertex="1">
          <mxGeometry x="300" width="90" height="20" as="geometry">
            <mxRectangle width="90" height="20" as="alternateBounds" />
          </mxGeometry>
        </mxCell>
        <mxCell id="wnhe7Y1w68x0GnMaK_CA-64" value="SponsorshipAmout" style="shape=partialRectangle;html=1;whiteSpace=wrap;connectable=0;overflow=hidden;fillColor=none;top=0;left=0;bottom=0;right=0;pointerEvents=1;labelBackgroundColor=none;" parent="wnhe7Y1w68x0GnMaK_CA-32" vertex="1">
          <mxGeometry x="390" width="110" height="20" as="geometry">
            <mxRectangle width="110" height="20" as="alternateBounds" />
          </mxGeometry>
        </mxCell>
        <mxCell id="wnhe7Y1w68x0GnMaK_CA-65" value="StartDate" style="shape=partialRectangle;html=1;whiteSpace=wrap;connectable=0;overflow=hidden;fillColor=none;top=0;left=0;bottom=0;right=0;pointerEvents=1;labelBackgroundColor=none;" parent="wnhe7Y1w68x0GnMaK_CA-32" vertex="1">
          <mxGeometry x="500" width="60" height="20" as="geometry">
            <mxRectangle width="60" height="20" as="alternateBounds" />
          </mxGeometry>
        </mxCell>
        <mxCell id="wnhe7Y1w68x0GnMaK_CA-66" value="EndDate" style="shape=partialRectangle;html=1;whiteSpace=wrap;connectable=0;overflow=hidden;fillColor=none;top=0;left=0;bottom=0;right=0;pointerEvents=1;labelBackgroundColor=none;" parent="wnhe7Y1w68x0GnMaK_CA-32" vertex="1">
          <mxGeometry x="560" width="50" height="20" as="geometry">
            <mxRectangle width="50" height="20" as="alternateBounds" />
          </mxGeometry>
        </mxCell>
        <mxCell id="wnhe7Y1w68x0GnMaK_CA-38" value="FestivalStaff" style="shape=table;startSize=20;container=1;collapsible=0;childLayout=tableLayout;labelBackgroundColor=none;" parent="1" vertex="1">
          <mxGeometry x="345" y="700" width="400" height="40" as="geometry" />
        </mxCell>
        <mxCell id="wnhe7Y1w68x0GnMaK_CA-39" value="" style="shape=tableRow;horizontal=0;startSize=0;swimlaneHead=0;swimlaneBody=0;top=0;left=0;bottom=0;right=0;collapsible=0;dropTarget=0;fillColor=none;points=[[0,0.5],[1,0.5]];portConstraint=eastwest;labelBackgroundColor=none;" parent="wnhe7Y1w68x0GnMaK_CA-38" vertex="1">
          <mxGeometry y="20" width="400" height="20" as="geometry" />
        </mxCell>
        <mxCell id="wnhe7Y1w68x0GnMaK_CA-40" value="&lt;span style=&quot;text-wrap-mode: nowrap;&quot;&gt;&lt;u&gt;FestivalStaffID&lt;/u&gt;&lt;/span&gt;" style="shape=partialRectangle;html=1;whiteSpace=wrap;connectable=0;overflow=hidden;fillColor=none;top=0;left=0;bottom=0;right=0;pointerEvents=1;labelBackgroundColor=none;" parent="wnhe7Y1w68x0GnMaK_CA-39" vertex="1">
          <mxGeometry width="90" height="20" as="geometry">
            <mxRectangle width="90" height="20" as="alternateBounds" />
          </mxGeometry>
        </mxCell>
        <mxCell id="wnhe7Y1w68x0GnMaK_CA-41" value="FSMailAddress" style="shape=partialRectangle;html=1;whiteSpace=wrap;connectable=0;overflow=hidden;fillColor=none;top=0;left=0;bottom=0;right=0;pointerEvents=1;labelBackgroundColor=none;" parent="wnhe7Y1w68x0GnMaK_CA-39" vertex="1">
          <mxGeometry x="90" width="90" height="20" as="geometry">
            <mxRectangle width="90" height="20" as="alternateBounds" />
          </mxGeometry>
        </mxCell>
        <mxCell id="wnhe7Y1w68x0GnMaK_CA-42" value="FSFirstName" style="shape=partialRectangle;html=1;whiteSpace=wrap;connectable=0;overflow=hidden;fillColor=none;top=0;left=0;bottom=0;right=0;pointerEvents=1;labelBackgroundColor=none;" parent="wnhe7Y1w68x0GnMaK_CA-39" vertex="1">
          <mxGeometry x="180" width="80" height="20" as="geometry">
            <mxRectangle width="80" height="20" as="alternateBounds" />
          </mxGeometry>
        </mxCell>
        <mxCell id="wnhe7Y1w68x0GnMaK_CA-43" value="FSLastName" style="shape=partialRectangle;html=1;whiteSpace=wrap;connectable=0;overflow=hidden;fillColor=none;top=0;left=0;bottom=0;right=0;pointerEvents=1;labelBackgroundColor=none;" parent="wnhe7Y1w68x0GnMaK_CA-39" vertex="1">
          <mxGeometry x="260" width="80" height="20" as="geometry">
            <mxRectangle width="80" height="20" as="alternateBounds" />
          </mxGeometry>
        </mxCell>
        <mxCell id="wnhe7Y1w68x0GnMaK_CA-44" value="FSPhone" style="shape=partialRectangle;html=1;whiteSpace=wrap;connectable=0;overflow=hidden;fillColor=none;top=0;left=0;bottom=0;right=0;pointerEvents=1;labelBackgroundColor=none;" parent="wnhe7Y1w68x0GnMaK_CA-39" vertex="1">
          <mxGeometry x="340" width="60" height="20" as="geometry">
            <mxRectangle width="60" height="20" as="alternateBounds" />
          </mxGeometry>
        </mxCell>
        <mxCell id="wnhe7Y1w68x0GnMaK_CA-45" value="StaffDaysWorking" style="shape=table;startSize=20;container=1;collapsible=0;childLayout=tableLayout;labelBackgroundColor=none;" parent="1" vertex="1">
          <mxGeometry x="150" y="620" width="170" height="40" as="geometry" />
        </mxCell>
        <mxCell id="wnhe7Y1w68x0GnMaK_CA-46" value="" style="shape=tableRow;horizontal=0;startSize=0;swimlaneHead=0;swimlaneBody=0;top=0;left=0;bottom=0;right=0;collapsible=0;dropTarget=0;fillColor=none;points=[[0,0.5],[1,0.5]];portConstraint=eastwest;labelBackgroundColor=none;" parent="wnhe7Y1w68x0GnMaK_CA-45" vertex="1">
          <mxGeometry y="20" width="170" height="20" as="geometry" />
        </mxCell>
        <mxCell id="wnhe7Y1w68x0GnMaK_CA-47" value="&lt;u style=&quot;text-wrap-mode: nowrap;&quot;&gt;FestivalStaffID&lt;/u&gt;" style="shape=partialRectangle;html=1;whiteSpace=wrap;connectable=0;overflow=hidden;fillColor=none;top=0;left=0;bottom=0;right=0;pointerEvents=1;labelBackgroundColor=none;" parent="wnhe7Y1w68x0GnMaK_CA-46" vertex="1">
          <mxGeometry width="85" height="20" as="geometry">
            <mxRectangle width="85" height="20" as="alternateBounds" />
          </mxGeometry>
        </mxCell>
        <mxCell id="wnhe7Y1w68x0GnMaK_CA-48" value="&lt;u&gt;DaysWorking&lt;/u&gt;" style="shape=partialRectangle;html=1;whiteSpace=wrap;connectable=0;overflow=hidden;fillColor=none;top=0;left=0;bottom=0;right=0;pointerEvents=1;labelBackgroundColor=none;" parent="wnhe7Y1w68x0GnMaK_CA-46" vertex="1">
          <mxGeometry x="85" width="85" height="20" as="geometry">
            <mxRectangle width="85" height="20" as="alternateBounds" />
          </mxGeometry>
        </mxCell>
        <mxCell id="wnhe7Y1w68x0GnMaK_CA-55" value="PerformanceSlot" style="shape=table;startSize=20;container=1;collapsible=0;childLayout=tableLayout;labelBackgroundColor=none;" parent="1" vertex="1">
          <mxGeometry x="100" y="390" width="410" height="40" as="geometry" />
        </mxCell>
        <mxCell id="wnhe7Y1w68x0GnMaK_CA-56" value="" style="shape=tableRow;horizontal=0;startSize=0;swimlaneHead=0;swimlaneBody=0;top=0;left=0;bottom=0;right=0;collapsible=0;dropTarget=0;fillColor=none;points=[[0,0.5],[1,0.5]];portConstraint=eastwest;labelBackgroundColor=none;" parent="wnhe7Y1w68x0GnMaK_CA-55" vertex="1">
          <mxGeometry y="20" width="410" height="20" as="geometry" />
        </mxCell>
        <mxCell id="wnhe7Y1w68x0GnMaK_CA-57" value="&lt;u&gt;SlotID&lt;/u&gt;" style="shape=partialRectangle;html=1;whiteSpace=wrap;connectable=0;overflow=hidden;fillColor=none;top=0;left=0;bottom=0;right=0;pointerEvents=1;labelBackgroundColor=none;" parent="wnhe7Y1w68x0GnMaK_CA-56" vertex="1">
          <mxGeometry width="42" height="20" as="geometry">
            <mxRectangle width="42" height="20" as="alternateBounds" />
          </mxGeometry>
        </mxCell>
        <mxCell id="wnhe7Y1w68x0GnMaK_CA-58" value="StartDateTime" style="shape=partialRectangle;html=1;whiteSpace=wrap;connectable=0;overflow=hidden;fillColor=none;top=0;left=0;bottom=0;right=0;pointerEvents=1;labelBackgroundColor=none;" parent="wnhe7Y1w68x0GnMaK_CA-56" vertex="1">
          <mxGeometry x="42" width="88" height="20" as="geometry">
            <mxRectangle width="88" height="20" as="alternateBounds" />
          </mxGeometry>
        </mxCell>
        <mxCell id="wnhe7Y1w68x0GnMaK_CA-59" value="EndDateTime" style="shape=partialRectangle;html=1;whiteSpace=wrap;connectable=0;overflow=hidden;fillColor=none;top=0;left=0;bottom=0;right=0;pointerEvents=1;labelBackgroundColor=none;" parent="wnhe7Y1w68x0GnMaK_CA-56" vertex="1">
          <mxGeometry x="130" width="80" height="20" as="geometry">
            <mxRectangle width="80" height="20" as="alternateBounds" />
          </mxGeometry>
        </mxCell>
        <mxCell id="wnhe7Y1w68x0GnMaK_CA-60" value="&lt;span style=&quot;text-wrap-mode: nowrap;&quot;&gt;PerformanceFee&lt;/span&gt;" style="shape=partialRectangle;html=1;whiteSpace=wrap;connectable=0;overflow=hidden;fillColor=none;top=0;left=0;bottom=0;right=0;pointerEvents=1;labelBackgroundColor=none;" parent="wnhe7Y1w68x0GnMaK_CA-56" vertex="1">
          <mxGeometry x="210" width="100" height="20" as="geometry">
            <mxRectangle width="100" height="20" as="alternateBounds" />
          </mxGeometry>
        </mxCell>
        <mxCell id="wnhe7Y1w68x0GnMaK_CA-61" value="VenueID" style="shape=partialRectangle;html=1;whiteSpace=wrap;connectable=0;overflow=hidden;fillColor=none;top=0;left=0;bottom=0;right=0;pointerEvents=1;labelBackgroundColor=none;" parent="wnhe7Y1w68x0GnMaK_CA-56" vertex="1">
          <mxGeometry x="310" width="50" height="20" as="geometry">
            <mxRectangle width="50" height="20" as="alternateBounds" />
          </mxGeometry>
        </mxCell>
        <mxCell id="wnhe7Y1w68x0GnMaK_CA-62" value="StageID" style="shape=partialRectangle;html=1;whiteSpace=wrap;connectable=0;overflow=hidden;fillColor=none;top=0;left=0;bottom=0;right=0;pointerEvents=1;labelBackgroundColor=none;" parent="wnhe7Y1w68x0GnMaK_CA-56" vertex="1">
          <mxGeometry x="360" width="50" height="20" as="geometry">
            <mxRectangle width="50" height="20" as="alternateBounds" />
          </mxGeometry>
        </mxCell>
        <mxCell id="wnhe7Y1w68x0GnMaK_CA-72" value="Contacts" style="shape=table;startSize=20;container=1;collapsible=0;childLayout=tableLayout;labelBackgroundColor=none;" parent="1" vertex="1">
          <mxGeometry x="345" y="620" width="290" height="40" as="geometry" />
        </mxCell>
        <mxCell id="wnhe7Y1w68x0GnMaK_CA-73" value="" style="shape=tableRow;horizontal=0;startSize=0;swimlaneHead=0;swimlaneBody=0;top=0;left=0;bottom=0;right=0;collapsible=0;dropTarget=0;fillColor=none;points=[[0,0.5],[1,0.5]];portConstraint=eastwest;labelBackgroundColor=none;" parent="wnhe7Y1w68x0GnMaK_CA-72" vertex="1">
          <mxGeometry y="20" width="290" height="20" as="geometry" />
        </mxCell>
        <mxCell id="wnhe7Y1w68x0GnMaK_CA-74" value="&lt;u style=&quot;text-wrap-mode: nowrap;&quot;&gt;FestivalStaffID&lt;/u&gt;" style="shape=partialRectangle;html=1;whiteSpace=wrap;connectable=0;overflow=hidden;fillColor=none;top=0;left=0;bottom=0;right=0;pointerEvents=1;labelBackgroundColor=none;" parent="wnhe7Y1w68x0GnMaK_CA-73" vertex="1">
          <mxGeometry width="90" height="20" as="geometry">
            <mxRectangle width="90" height="20" as="alternateBounds" />
          </mxGeometry>
        </mxCell>
        <mxCell id="wnhe7Y1w68x0GnMaK_CA-75" value="&lt;u style=&quot;text-wrap-mode: nowrap;&quot;&gt;FestivalGoerID&lt;/u&gt;" style="shape=partialRectangle;html=1;whiteSpace=wrap;connectable=0;overflow=hidden;fillColor=none;top=0;left=0;bottom=0;right=0;pointerEvents=1;labelBackgroundColor=none;" parent="wnhe7Y1w68x0GnMaK_CA-73" vertex="1">
          <mxGeometry x="90" width="90" height="20" as="geometry">
            <mxRectangle width="90" height="20" as="alternateBounds" />
          </mxGeometry>
        </mxCell>
        <mxCell id="wnhe7Y1w68x0GnMaK_CA-76" value="LatestContactDate" style="shape=partialRectangle;html=1;whiteSpace=wrap;connectable=0;overflow=hidden;fillColor=none;top=0;left=0;bottom=0;right=0;pointerEvents=1;labelBackgroundColor=none;" parent="wnhe7Y1w68x0GnMaK_CA-73" vertex="1">
          <mxGeometry x="180" width="110" height="20" as="geometry">
            <mxRectangle width="110" height="20" as="alternateBounds" />
          </mxGeometry>
        </mxCell>
        <mxCell id="wnhe7Y1w68x0GnMaK_CA-77" value="AppliesFor" style="shape=table;startSize=20;container=1;collapsible=0;childLayout=tableLayout;labelBackgroundColor=none;" parent="1" vertex="1">
          <mxGeometry x="309" y="470" width="210" height="40" as="geometry" />
        </mxCell>
        <mxCell id="wnhe7Y1w68x0GnMaK_CA-78" value="" style="shape=tableRow;horizontal=0;startSize=0;swimlaneHead=0;swimlaneBody=0;top=0;left=0;bottom=0;right=0;collapsible=0;dropTarget=0;fillColor=none;points=[[0,0.5],[1,0.5]];portConstraint=eastwest;labelBackgroundColor=none;" parent="wnhe7Y1w68x0GnMaK_CA-77" vertex="1">
          <mxGeometry y="20" width="210" height="20" as="geometry" />
        </mxCell>
        <mxCell id="wnhe7Y1w68x0GnMaK_CA-79" value="&lt;u style=&quot;text-wrap-mode: nowrap;&quot;&gt;FestivalGoerID&lt;/u&gt;" style="shape=partialRectangle;html=1;whiteSpace=wrap;connectable=0;overflow=hidden;fillColor=none;top=0;left=0;bottom=0;right=0;pointerEvents=1;labelBackgroundColor=none;" parent="wnhe7Y1w68x0GnMaK_CA-78" vertex="1">
          <mxGeometry width="90" height="20" as="geometry">
            <mxRectangle width="90" height="20" as="alternateBounds" />
          </mxGeometry>
        </mxCell>
        <mxCell id="wnhe7Y1w68x0GnMaK_CA-80" value="&lt;u&gt;SlotID&lt;/u&gt;" style="shape=partialRectangle;html=1;whiteSpace=wrap;connectable=0;overflow=hidden;fillColor=none;top=0;left=0;bottom=0;right=0;pointerEvents=1;labelBackgroundColor=none;" parent="wnhe7Y1w68x0GnMaK_CA-78" vertex="1">
          <mxGeometry x="90" width="40" height="20" as="geometry">
            <mxRectangle width="40" height="20" as="alternateBounds" />
          </mxGeometry>
        </mxCell>
        <mxCell id="wnhe7Y1w68x0GnMaK_CA-81" value="ProposedFee" style="shape=partialRectangle;html=1;whiteSpace=wrap;connectable=0;overflow=hidden;fillColor=none;top=0;left=0;bottom=0;right=0;pointerEvents=1;labelBackgroundColor=none;" parent="wnhe7Y1w68x0GnMaK_CA-78" vertex="1">
          <mxGeometry x="130" width="80" height="20" as="geometry">
            <mxRectangle width="80" height="20" as="alternateBounds" />
          </mxGeometry>
        </mxCell>
        <mxCell id="wnhe7Y1w68x0GnMaK_CA-82" value="PerformsAt" style="shape=table;startSize=20;container=1;collapsible=0;childLayout=tableLayout;labelBackgroundColor=none;" parent="1" vertex="1">
          <mxGeometry x="100" y="470" width="200" height="40" as="geometry" />
        </mxCell>
        <mxCell id="wnhe7Y1w68x0GnMaK_CA-83" value="" style="shape=tableRow;horizontal=0;startSize=0;swimlaneHead=0;swimlaneBody=0;top=0;left=0;bottom=0;right=0;collapsible=0;dropTarget=0;fillColor=none;points=[[0,0.5],[1,0.5]];portConstraint=eastwest;labelBackgroundColor=none;" parent="wnhe7Y1w68x0GnMaK_CA-82" vertex="1">
          <mxGeometry y="20" width="200" height="20" as="geometry" />
        </mxCell>
        <mxCell id="wnhe7Y1w68x0GnMaK_CA-84" value="&lt;u style=&quot;text-wrap-mode: nowrap;&quot;&gt;FestivalGoerID&lt;/u&gt;" style="shape=partialRectangle;html=1;whiteSpace=wrap;connectable=0;overflow=hidden;fillColor=none;top=0;left=0;bottom=0;right=0;pointerEvents=1;labelBackgroundColor=none;" parent="wnhe7Y1w68x0GnMaK_CA-83" vertex="1">
          <mxGeometry width="90" height="20" as="geometry">
            <mxRectangle width="90" height="20" as="alternateBounds" />
          </mxGeometry>
        </mxCell>
        <mxCell id="wnhe7Y1w68x0GnMaK_CA-85" value="&lt;u&gt;SlotID&lt;/u&gt;" style="shape=partialRectangle;html=1;whiteSpace=wrap;connectable=0;overflow=hidden;fillColor=none;top=0;left=0;bottom=0;right=0;pointerEvents=1;labelBackgroundColor=none;" parent="wnhe7Y1w68x0GnMaK_CA-83" vertex="1">
          <mxGeometry x="90" width="40" height="20" as="geometry">
            <mxRectangle width="40" height="20" as="alternateBounds" />
          </mxGeometry>
        </mxCell>
        <mxCell id="wnhe7Y1w68x0GnMaK_CA-86" value="TicketPrice" style="shape=partialRectangle;html=1;whiteSpace=wrap;connectable=0;overflow=hidden;fillColor=none;top=0;left=0;bottom=0;right=0;pointerEvents=1;labelBackgroundColor=none;" parent="wnhe7Y1w68x0GnMaK_CA-83" vertex="1">
          <mxGeometry x="130" width="70" height="20" as="geometry">
            <mxRectangle width="70" height="20" as="alternateBounds" />
          </mxGeometry>
        </mxCell>
        <mxCell id="wnhe7Y1w68x0GnMaK_CA-87" value="" style="endArrow=classic;html=1;rounded=0;edgeStyle=orthogonalEdgeStyle;labelBackgroundColor=none;fontColor=default;" parent="1" edge="1">
          <mxGeometry width="50" height="50" relative="1" as="geometry">
            <mxPoint x="149.96" y="330" as="sourcePoint" />
            <mxPoint x="199.96" y="280" as="targetPoint" />
            <Array as="points">
              <mxPoint x="120" y="330" />
              <mxPoint x="120" y="300" />
              <mxPoint x="200" y="300" />
            </Array>
          </mxGeometry>
        </mxCell>
        <mxCell id="wnhe7Y1w68x0GnMaK_CA-89" value="" style="endArrow=classic;html=1;rounded=0;edgeStyle=orthogonalEdgeStyle;labelBackgroundColor=none;fontColor=default;" parent="1" edge="1">
          <mxGeometry width="50" height="50" relative="1" as="geometry">
            <mxPoint x="232.55" y="330" as="sourcePoint" />
            <mxPoint x="200.03" y="280" as="targetPoint" />
            <Array as="points">
              <mxPoint x="232.03" y="300" />
              <mxPoint x="200.03" y="300" />
            </Array>
          </mxGeometry>
        </mxCell>
        <mxCell id="wnhe7Y1w68x0GnMaK_CA-90" value="" style="endArrow=classic;html=1;rounded=0;edgeStyle=orthogonalEdgeStyle;exitX=0.825;exitY=0.01;exitDx=0;exitDy=0;exitPerimeter=0;" parent="1" source="wnhe7Y1w68x0GnMaK_CA-56" edge="1">
          <mxGeometry width="50" height="50" relative="1" as="geometry">
            <mxPoint x="180" y="400" as="sourcePoint" />
            <mxPoint x="230" y="350" as="targetPoint" />
          </mxGeometry>
        </mxCell>
        <mxCell id="wnhe7Y1w68x0GnMaK_CA-91" value="" style="endArrow=classic;html=1;rounded=0;edgeStyle=orthogonalEdgeStyle;entryX=0.133;entryY=0.976;entryDx=0;entryDy=0;entryPerimeter=0;" parent="1" edge="1">
          <mxGeometry width="50" height="50" relative="1" as="geometry">
            <mxPoint x="480" y="370" as="sourcePoint" />
            <mxPoint x="291.13" y="350.0000000000001" as="targetPoint" />
          </mxGeometry>
        </mxCell>
        <mxCell id="wnhe7Y1w68x0GnMaK_CA-93" value="" style="endArrow=none;html=1;rounded=0;exitX=0.928;exitY=0.01;exitDx=0;exitDy=0;exitPerimeter=0;" parent="1" source="wnhe7Y1w68x0GnMaK_CA-56" edge="1">
          <mxGeometry width="50" height="50" relative="1" as="geometry">
            <mxPoint x="360" y="520" as="sourcePoint" />
            <mxPoint x="480" y="370" as="targetPoint" />
          </mxGeometry>
        </mxCell>
        <mxCell id="wnhe7Y1w68x0GnMaK_CA-98" value="" style="endArrow=classic;html=1;rounded=0;edgeStyle=orthogonalEdgeStyle;exitX=0.15;exitY=1.017;exitDx=0;exitDy=0;exitPerimeter=0;" parent="1" source="wnhe7Y1w68x0GnMaK_CA-13" edge="1">
          <mxGeometry width="50" height="50" relative="1" as="geometry">
            <mxPoint x="440" y="609" as="sourcePoint" />
            <mxPoint x="490" y="559" as="targetPoint" />
            <Array as="points">
              <mxPoint x="574" y="520" />
              <mxPoint x="490" y="520" />
            </Array>
          </mxGeometry>
        </mxCell>
        <mxCell id="wnhe7Y1w68x0GnMaK_CA-99" value="" style="endArrow=classic;html=1;rounded=0;edgeStyle=orthogonalEdgeStyle;exitX=0.287;exitY=1.042;exitDx=0;exitDy=0;exitPerimeter=0;" parent="1" source="wnhe7Y1w68x0GnMaK_CA-9" edge="1">
          <mxGeometry width="50" height="50" relative="1" as="geometry">
            <mxPoint x="440" y="630" as="sourcePoint" />
            <mxPoint x="490" y="580" as="targetPoint" />
            <Array as="points">
              <mxPoint x="140" y="595" />
              <mxPoint x="490" y="595" />
            </Array>
          </mxGeometry>
        </mxCell>
        <mxCell id="wnhe7Y1w68x0GnMaK_CA-105" value="" style="endArrow=classic;html=1;rounded=0;edgeStyle=orthogonalEdgeStyle;exitX=0.251;exitY=1.017;exitDx=0;exitDy=0;exitPerimeter=0;" parent="1" source="wnhe7Y1w68x0GnMaK_CA-46" edge="1">
          <mxGeometry width="50" height="50" relative="1" as="geometry">
            <mxPoint x="400" y="510" as="sourcePoint" />
            <mxPoint x="390" y="720" as="targetPoint" />
          </mxGeometry>
        </mxCell>
        <mxCell id="wnhe7Y1w68x0GnMaK_CA-106" value="" style="endArrow=classic;html=1;rounded=0;entryX=0.13;entryY=0.975;entryDx=0;entryDy=0;entryPerimeter=0;edgeStyle=orthogonalEdgeStyle;exitX=0.371;exitY=-0.025;exitDx=0;exitDy=0;exitPerimeter=0;" parent="1" source="wnhe7Y1w68x0GnMaK_CA-73" target="wnhe7Y1w68x0GnMaK_CA-2" edge="1">
          <mxGeometry width="50" height="50" relative="1" as="geometry">
            <mxPoint x="400" y="510" as="sourcePoint" />
            <mxPoint x="450" y="460" as="targetPoint" />
          </mxGeometry>
        </mxCell>
        <mxCell id="wnhe7Y1w68x0GnMaK_CA-107" value="" style="endArrow=classic;html=1;rounded=0;edgeStyle=orthogonalEdgeStyle;exitX=0.156;exitY=0.975;exitDx=0;exitDy=0;exitPerimeter=0;" parent="1" source="wnhe7Y1w68x0GnMaK_CA-73" edge="1">
          <mxGeometry width="50" height="50" relative="1" as="geometry">
            <mxPoint x="420" y="580" as="sourcePoint" />
            <mxPoint x="390" y="720" as="targetPoint" />
          </mxGeometry>
        </mxCell>
        <mxCell id="wnhe7Y1w68x0GnMaK_CA-108" value="" style="endArrow=classic;html=1;rounded=0;edgeStyle=orthogonalEdgeStyle;entryX=0.162;entryY=-0.042;entryDx=0;entryDy=0;entryPerimeter=0;" parent="1" target="wnhe7Y1w68x0GnMaK_CA-9" edge="1">
          <mxGeometry width="50" height="50" relative="1" as="geometry">
            <mxPoint x="350" y="510" as="sourcePoint" />
            <mxPoint x="400" y="460" as="targetPoint" />
          </mxGeometry>
        </mxCell>
        <mxCell id="wnhe7Y1w68x0GnMaK_CA-109" value="" style="endArrow=classic;html=1;rounded=0;edgeStyle=orthogonalEdgeStyle;entryX=0.162;entryY=-0.042;entryDx=0;entryDy=0;entryPerimeter=0;exitX=0.113;exitY=1.017;exitDx=0;exitDy=0;exitPerimeter=0;" parent="1" source="wnhe7Y1w68x0GnMaK_CA-83" target="wnhe7Y1w68x0GnMaK_CA-9" edge="1">
          <mxGeometry width="50" height="50" relative="1" as="geometry">
            <mxPoint x="350" y="510" as="sourcePoint" />
            <mxPoint x="400" y="460" as="targetPoint" />
          </mxGeometry>
        </mxCell>
        <mxCell id="wnhe7Y1w68x0GnMaK_CA-110" value="" style="endArrow=classic;html=1;rounded=0;edgeStyle=orthogonalEdgeStyle;entryX=0.045;entryY=1.017;entryDx=0;entryDy=0;entryPerimeter=0;" parent="1" target="wnhe7Y1w68x0GnMaK_CA-56" edge="1">
          <mxGeometry width="50" height="50" relative="1" as="geometry">
            <mxPoint x="417" y="470" as="sourcePoint" />
            <mxPoint x="400" y="460" as="targetPoint" />
          </mxGeometry>
        </mxCell>
        <mxCell id="wnhe7Y1w68x0GnMaK_CA-112" value="" style="endArrow=none;html=1;rounded=0;" parent="1" edge="1">
          <mxGeometry width="50" height="50" relative="1" as="geometry">
            <mxPoint x="210" y="470" as="sourcePoint" />
            <mxPoint x="210" y="450" as="targetPoint" />
          </mxGeometry>
        </mxCell>
        <mxCell id="wnhe7Y1w68x0GnMaK_CA-113" value="" style="endArrow=none;html=1;rounded=0;edgeStyle=orthogonalEdgeStyle;" parent="1" edge="1">
          <mxGeometry width="50" height="50" relative="1" as="geometry">
            <mxPoint x="295" y="690" as="sourcePoint" />
            <mxPoint x="80" y="220" as="targetPoint" />
          </mxGeometry>
        </mxCell>
        <mxCell id="wnhe7Y1w68x0GnMaK_CA-114" value="" style="endArrow=none;html=1;rounded=0;edgeStyle=orthogonalEdgeStyle;exitX=0.423;exitY=-0.088;exitDx=0;exitDy=0;exitPerimeter=0;" parent="1" source="wnhe7Y1w68x0GnMaK_CA-32" edge="1">
          <mxGeometry width="50" height="50" relative="1" as="geometry">
            <mxPoint x="560" y="270" as="sourcePoint" />
            <mxPoint x="80" y="220" as="targetPoint" />
            <Array as="points">
              <mxPoint x="466" y="328" />
              <mxPoint x="466" y="220" />
            </Array>
          </mxGeometry>
        </mxCell>
        <mxCell id="wnhe7Y1w68x0GnMaK_CA-116" value="" style="endArrow=classic;html=1;rounded=0;entryX=0.169;entryY=-0.1;entryDx=0;entryDy=0;entryPerimeter=0;exitX=0.603;exitY=1;exitDx=0;exitDy=0;exitPerimeter=0;edgeStyle=orthogonalEdgeStyle;" parent="1" source="wnhe7Y1w68x0GnMaK_CA-32" target="wnhe7Y1w68x0GnMaK_CA-13" edge="1">
          <mxGeometry width="50" height="50" relative="1" as="geometry">
            <mxPoint x="410" y="490" as="sourcePoint" />
            <mxPoint x="460" y="440" as="targetPoint" />
            <Array as="points">
              <mxPoint x="579" y="350" />
            </Array>
          </mxGeometry>
        </mxCell>
        <mxCell id="EaDcFeZHUjkQNov3I_Bp-1" value="Assist" style="shape=table;startSize=20;container=1;collapsible=0;childLayout=tableLayout;" parent="1" vertex="1">
          <mxGeometry x="345" y="780" width="155" height="40" as="geometry" />
        </mxCell>
        <mxCell id="EaDcFeZHUjkQNov3I_Bp-2" value="" style="shape=tableRow;horizontal=0;startSize=0;swimlaneHead=0;swimlaneBody=0;strokeColor=inherit;top=0;left=0;bottom=0;right=0;collapsible=0;dropTarget=0;fillColor=none;points=[[0,0.5],[1,0.5]];portConstraint=eastwest;" parent="EaDcFeZHUjkQNov3I_Bp-1" vertex="1">
          <mxGeometry y="20" width="155" height="20" as="geometry" />
        </mxCell>
        <mxCell id="EaDcFeZHUjkQNov3I_Bp-3" value="&lt;u style=&quot;text-wrap-mode: nowrap;&quot;&gt;FestivalStaffID&lt;/u&gt;" style="shape=partialRectangle;html=1;whiteSpace=wrap;connectable=0;strokeColor=inherit;overflow=hidden;fillColor=none;top=0;left=0;bottom=0;right=0;pointerEvents=1;" parent="EaDcFeZHUjkQNov3I_Bp-2" vertex="1">
          <mxGeometry width="90" height="20" as="geometry">
            <mxRectangle width="90" height="20" as="alternateBounds" />
          </mxGeometry>
        </mxCell>
        <mxCell id="EaDcFeZHUjkQNov3I_Bp-4" value="&lt;u&gt;Assistant&lt;/u&gt;" style="shape=partialRectangle;html=1;whiteSpace=wrap;connectable=0;strokeColor=inherit;overflow=hidden;fillColor=none;top=0;left=0;bottom=0;right=0;pointerEvents=1;" parent="EaDcFeZHUjkQNov3I_Bp-2" vertex="1">
          <mxGeometry x="90" width="65" height="20" as="geometry">
            <mxRectangle width="65" height="20" as="alternateBounds" />
          </mxGeometry>
        </mxCell>
        <mxCell id="NNv2YC6juNb80rMCpCpS-1" value="" style="endArrow=classic;html=1;rounded=0;edgeStyle=orthogonalEdgeStyle;exitX=0.817;exitY=-0.004;exitDx=0;exitDy=0;exitPerimeter=0;" edge="1" parent="1" source="EaDcFeZHUjkQNov3I_Bp-2">
          <mxGeometry width="50" height="50" relative="1" as="geometry">
            <mxPoint x="340" y="790" as="sourcePoint" />
            <mxPoint x="390" y="740" as="targetPoint" />
          </mxGeometry>
        </mxCell>
        <mxCell id="NNv2YC6juNb80rMCpCpS-2" value="" style="endArrow=none;html=1;rounded=0;exitX=0.289;exitY=-0.017;exitDx=0;exitDy=0;exitPerimeter=0;" edge="1" parent="1" source="EaDcFeZHUjkQNov3I_Bp-2">
          <mxGeometry width="50" height="50" relative="1" as="geometry">
            <mxPoint x="440" y="820" as="sourcePoint" />
            <mxPoint x="390" y="770" as="targetPoint" />
          </mxGeometry>
        </mxCell>
      </root>
    </mxGraphModel>
  </diagram>
</mxfile>
